<mxfile host="app.diagrams.net" modified="2024-01-30T09:17:23.080Z" agent="Mozilla/5.0 (Windows NT 10.0; Win64; x64) AppleWebKit/537.36 (KHTML, like Gecko) Chrome/120.0.0.0 Safari/537.36 OPR/106.0.0.0" etag="qUvll3SC_ua26s5vl1e_" version="23.0.2" type="device">
  <diagram id="R2lEEEUBdFMjLlhIrx00" name="Page-1">
    <mxGraphModel dx="3096" dy="1702" grid="1" gridSize="10" guides="1" tooltips="1" connect="1" arrows="1" fold="1" page="1" pageScale="1" pageWidth="850" pageHeight="1100" math="0" shadow="0" extFonts="Permanent Marker^https://fonts.googleapis.com/css?family=Permanent+Marker">
      <root>
        <mxCell id="0" />
        <mxCell id="1" parent="0" />
        <mxCell id="xqVaAm3ZB9rG-4G4HERd-1" value="Admin" style="whiteSpace=wrap;html=1;align=center;" parent="1" vertex="1">
          <mxGeometry x="1670" y="140" width="100" height="40" as="geometry" />
        </mxCell>
        <mxCell id="xqVaAm3ZB9rG-4G4HERd-2" value="User" style="whiteSpace=wrap;html=1;align=center;" parent="1" vertex="1">
          <mxGeometry x="870" y="440" width="100" height="40" as="geometry" />
        </mxCell>
        <mxCell id="xqVaAm3ZB9rG-4G4HERd-3" value="ServiceProvider" style="whiteSpace=wrap;html=1;align=center;" parent="1" vertex="1">
          <mxGeometry x="1020" y="170" width="100" height="40" as="geometry" />
        </mxCell>
        <mxCell id="xqVaAm3ZB9rG-4G4HERd-5" value="&lt;h1&gt;Entities&lt;/h1&gt;&lt;p&gt;Admin&lt;/p&gt;&lt;p&gt;&lt;span style=&quot;white-space: pre;&quot;&gt;&#x9;&lt;/span&gt;-ID&lt;br&gt;&lt;/p&gt;&lt;p&gt;&lt;span style=&quot;white-space: pre;&quot;&gt;&#x9;&lt;/span&gt;-Username&lt;br&gt;&lt;/p&gt;&lt;p&gt;&lt;span style=&quot;white-space: pre;&quot;&gt;&#x9;&lt;/span&gt;-Password&lt;br&gt;&lt;/p&gt;&lt;p&gt;&lt;br&gt;&lt;/p&gt;&lt;p&gt;User&lt;/p&gt;&lt;p&gt;&lt;span style=&quot;white-space: pre;&quot;&gt;&#x9;&lt;/span&gt;-ID&lt;br&gt;&lt;/p&gt;&lt;p&gt;&lt;span style=&quot;white-space: pre;&quot;&gt;&#x9;&lt;/span&gt;-Email&lt;br&gt;&lt;/p&gt;&lt;p&gt;&lt;span style=&quot;white-space: pre;&quot;&gt;&#x9;&lt;/span&gt;-Password&lt;/p&gt;&lt;p&gt;&lt;span style=&quot;white-space: pre;&quot;&gt;&#x9;&lt;/span&gt;-Name&lt;br&gt;&lt;/p&gt;&lt;p&gt;&lt;span style=&quot;white-space: pre;&quot;&gt;&#x9;&lt;/span&gt;-Address&lt;br&gt;&lt;/p&gt;&lt;p&gt;&lt;span style=&quot;white-space: pre;&quot;&gt;&#x9;&lt;/span&gt;-PhoneNumber&lt;br&gt;&lt;/p&gt;&lt;p&gt;&lt;br&gt;&lt;/p&gt;&lt;p&gt;ServiceProvider&lt;/p&gt;&lt;p&gt;&lt;span style=&quot;white-space: pre;&quot;&gt;&#x9;&lt;/span&gt;-ID&lt;br&gt;&lt;/p&gt;&lt;p&gt;&lt;span style=&quot;white-space: pre;&quot;&gt;&#x9;&lt;/span&gt;-Email&lt;br&gt;&lt;/p&gt;&lt;p&gt;&lt;span style=&quot;white-space: pre;&quot;&gt;&#x9;&lt;/span&gt;-Password&lt;br&gt;&lt;/p&gt;&lt;p&gt;&lt;span style=&quot;white-space: pre;&quot;&gt;&#x9;&lt;/span&gt;-Name&lt;br&gt;&lt;/p&gt;&lt;p&gt;&lt;span style=&quot;white-space: pre;&quot;&gt;&#x9;&lt;/span&gt;-Address&lt;br&gt;&lt;/p&gt;&lt;p&gt;&lt;span style=&quot;white-space: pre;&quot;&gt;&#x9;&lt;/span&gt;-PhoneNumber&lt;br&gt;&lt;/p&gt;&lt;p&gt;&lt;span style=&quot;white-space: pre;&quot;&gt;&#x9;&lt;/span&gt;-Category&lt;br&gt;&lt;/p&gt;&lt;p&gt;&lt;br&gt;&lt;/p&gt;&lt;p&gt;Booking&lt;/p&gt;&lt;p&gt;&lt;span style=&quot;white-space: pre;&quot;&gt;&#x9;&lt;/span&gt;-ID&lt;br&gt;&lt;/p&gt;&lt;p&gt;&lt;span style=&quot;white-space: pre;&quot;&gt;&#x9;&lt;/span&gt;-UID&lt;br&gt;&lt;/p&gt;&lt;p&gt;&lt;span style=&quot;white-space: pre;&quot;&gt;&#x9;&lt;/span&gt;-SID&lt;br&gt;&lt;/p&gt;&lt;p&gt;&lt;span style=&quot;white-space: pre;&quot;&gt;&#x9;&lt;/span&gt;-Amount&lt;br&gt;&lt;/p&gt;&lt;p&gt;&lt;span style=&quot;white-space: pre;&quot;&gt;&#x9;&lt;/span&gt;-dateTime&lt;/p&gt;&lt;p&gt;&lt;br&gt;&lt;/p&gt;&lt;p&gt;Service&lt;/p&gt;&lt;p&gt;&lt;span style=&quot;white-space: pre;&quot;&gt;&#x9;&lt;/span&gt;-ID&lt;br&gt;&lt;/p&gt;&lt;p&gt;&lt;span style=&quot;white-space: pre;&quot;&gt;&#x9;&lt;/span&gt;-SPID&lt;br&gt;&lt;/p&gt;&lt;p&gt;&lt;span style=&quot;white-space: pre;&quot;&gt;&#x9;&lt;/span&gt;-Name&lt;br&gt;&lt;/p&gt;&lt;p&gt;&lt;span style=&quot;white-space: pre;&quot;&gt;&#x9;&lt;/span&gt;-Amount&lt;br&gt;&lt;/p&gt;&lt;p&gt;&lt;span style=&quot;white-space: pre;&quot;&gt;&#x9;&lt;/span&gt;-LongDescription&lt;br&gt;&lt;/p&gt;&lt;p&gt;&lt;span style=&quot;white-space: pre;&quot;&gt;&#x9;&lt;/span&gt;-ShortDescription&lt;br&gt;&lt;/p&gt;&lt;p&gt;&lt;span style=&quot;white-space: pre;&quot;&gt;&#x9;&lt;/span&gt;-Image&lt;br&gt;&lt;/p&gt;&lt;p&gt;&lt;span style=&quot;white-space: pre;&quot;&gt;&#x9;&lt;/span&gt;-Image2&lt;br&gt;&lt;/p&gt;&lt;p&gt;&lt;span style=&quot;white-space: pre;&quot;&gt;&#x9;&lt;/span&gt;-Image3&lt;br&gt;&lt;/p&gt;&lt;p&gt;&lt;span style=&quot;white-space: pre;&quot;&gt;&#x9;&lt;/span&gt;-Image4&lt;br&gt;&lt;/p&gt;&lt;p&gt;&lt;span style=&quot;white-space: pre;&quot;&gt;&#x9;&lt;/span&gt;-Image5&lt;br&gt;&lt;/p&gt;&lt;p&gt;&lt;span style=&quot;white-space: pre;&quot;&gt;&#x9;&lt;/span&gt;-isAvailable&lt;br&gt;&lt;/p&gt;&lt;p&gt;&lt;span style=&quot;white-space: pre;&quot;&gt;&#x9;&lt;/span&gt;-Location&lt;br&gt;&lt;/p&gt;&lt;p&gt;&lt;br&gt;&lt;/p&gt;&lt;p&gt;Event&lt;/p&gt;&lt;p&gt;&lt;span style=&quot;white-space: pre;&quot;&gt;&#x9;&lt;/span&gt;-ID&lt;br&gt;&lt;/p&gt;&lt;p&gt;&lt;span style=&quot;white-space: pre;&quot;&gt;&#x9;&lt;/span&gt;-SID&lt;/p&gt;&lt;p&gt;&lt;br&gt;&lt;/p&gt;&lt;p&gt;Venue&lt;/p&gt;&lt;p&gt;&lt;span style=&quot;white-space: pre;&quot;&gt;&#x9;&lt;/span&gt;-ID&lt;br&gt;&lt;/p&gt;&lt;p&gt;&lt;span style=&quot;white-space: pre;&quot;&gt;&#x9;&lt;/span&gt;-SID&lt;/p&gt;&lt;p&gt;&lt;br&gt;&lt;/p&gt;&lt;p&gt;Notification&lt;/p&gt;&lt;p&gt;&lt;span style=&quot;white-space: pre;&quot;&gt;&#x9;&lt;/span&gt;-ID&lt;br&gt;&lt;/p&gt;&lt;p&gt;&lt;span style=&quot;white-space: pre;&quot;&gt;&#x9;&lt;/span&gt;-content&lt;br&gt;&lt;/p&gt;&lt;p&gt;&lt;span style=&quot;white-space: pre;&quot;&gt;&#x9;&lt;/span&gt;-dateTime&lt;br&gt;&lt;/p&gt;&lt;p&gt;&lt;br&gt;&lt;/p&gt;&lt;p&gt;Hotel&lt;/p&gt;&lt;p&gt;&lt;span style=&quot;white-space: pre;&quot;&gt;&#x9;&lt;/span&gt;-ID&lt;br&gt;&lt;/p&gt;&lt;p&gt;&lt;span style=&quot;white-space: pre;&quot;&gt;&#x9;&lt;/span&gt;-SID&lt;/p&gt;&lt;p&gt;&lt;br&gt;&lt;/p&gt;&lt;p&gt;Vehicle&lt;/p&gt;&lt;p&gt;&lt;span style=&quot;white-space: pre;&quot;&gt;&#x9;&lt;/span&gt;-ID&lt;br&gt;&lt;/p&gt;&lt;p&gt;&lt;span style=&quot;white-space: pre;&quot;&gt;&#x9;&lt;/span&gt;-SID&lt;/p&gt;&lt;p&gt;&lt;br&gt;&lt;/p&gt;&lt;p&gt;Tour&lt;/p&gt;&lt;p&gt;&lt;span style=&quot;white-space: pre;&quot;&gt;&#x9;&lt;/span&gt;-ID&lt;br&gt;&lt;/p&gt;&lt;p&gt;&lt;span style=&quot;white-space: pre;&quot;&gt;&#x9;&lt;/span&gt;-SID&lt;br&gt;&lt;/p&gt;&lt;p&gt;&lt;br&gt;&lt;/p&gt;&lt;p&gt;Feedback&lt;/p&gt;&lt;p&gt;&lt;span style=&quot;white-space: pre;&quot;&gt;&#x9;&lt;/span&gt;-ID&lt;br&gt;&lt;/p&gt;&lt;p&gt;&lt;span style=&quot;white-space: pre;&quot;&gt;&#x9;&lt;/span&gt;-UID&lt;br&gt;&lt;/p&gt;&lt;p&gt;&lt;span style=&quot;white-space: pre;&quot;&gt;&#x9;&lt;/span&gt;-Text&lt;br&gt;&lt;/p&gt;&lt;p&gt;&lt;span style=&quot;white-space: pre;&quot;&gt;&#x9;&lt;/span&gt;-dateTime&lt;br&gt;&lt;/p&gt;&lt;p&gt;&lt;br&gt;&lt;/p&gt;&lt;p&gt;Activity&lt;/p&gt;&lt;p&gt;&lt;span style=&quot;white-space: pre;&quot;&gt;&#x9;&lt;/span&gt;-ID&lt;br&gt;&lt;/p&gt;&lt;p&gt;&lt;span style=&quot;white-space: pre;&quot;&gt;&#x9;&lt;/span&gt;-SID&lt;br&gt;&lt;/p&gt;&lt;p&gt;&lt;span style=&quot;white-space: pre;&quot;&gt;&#x9;&lt;/span&gt;&lt;br&gt;&lt;/p&gt;&lt;p&gt;Catering&lt;/p&gt;&lt;p&gt;&lt;span style=&quot;white-space: pre;&quot;&gt;&#x9;&lt;/span&gt;-ID&lt;br&gt;&lt;/p&gt;&lt;p&gt;&lt;span style=&quot;white-space: pre;&quot;&gt;&#x9;&lt;/span&gt;-SID&lt;br&gt;&lt;/p&gt;&lt;p&gt;&lt;br&gt;&lt;/p&gt;&lt;p&gt;Entertainment&lt;/p&gt;&lt;p&gt;&lt;span style=&quot;white-space: pre;&quot;&gt;&#x9;&lt;/span&gt;-ID&lt;br&gt;&lt;/p&gt;&lt;p&gt;&lt;span style=&quot;white-space: pre;&quot;&gt;&#x9;&lt;/span&gt;-SID&lt;br&gt;&lt;/p&gt;&lt;p&gt;&lt;br&gt;&lt;/p&gt;&lt;p&gt;Freelancer&lt;/p&gt;&lt;p&gt;&lt;span style=&quot;white-space: pre;&quot;&gt;&#x9;&lt;/span&gt;-ID&lt;br&gt;&lt;/p&gt;&lt;p&gt;&lt;span style=&quot;white-space: pre;&quot;&gt;&#x9;&lt;/span&gt;-SID&lt;br&gt;&lt;/p&gt;" style="text;html=1;strokeColor=none;fillColor=none;spacing=5;spacingTop=-20;whiteSpace=wrap;overflow=hidden;rounded=0;" parent="1" vertex="1">
          <mxGeometry x="80" y="150" width="190" height="3040" as="geometry" />
        </mxCell>
        <mxCell id="RE4k1GAgKNQsEZz6e2NA-1" value="Service" style="whiteSpace=wrap;html=1;align=center;" parent="1" vertex="1">
          <mxGeometry x="1390" y="480" width="100" height="40" as="geometry" />
        </mxCell>
        <mxCell id="RE4k1GAgKNQsEZz6e2NA-2" value="Booking" style="whiteSpace=wrap;html=1;align=center;" parent="1" vertex="1">
          <mxGeometry x="910" y="700" width="100" height="40" as="geometry" />
        </mxCell>
        <mxCell id="RE4k1GAgKNQsEZz6e2NA-3" value="Event" style="whiteSpace=wrap;html=1;align=center;" parent="1" vertex="1">
          <mxGeometry x="1690" y="940" width="100" height="40" as="geometry" />
        </mxCell>
        <mxCell id="RE4k1GAgKNQsEZz6e2NA-4" value="Venue" style="whiteSpace=wrap;html=1;align=center;" parent="1" vertex="1">
          <mxGeometry x="1120" y="980" width="100" height="40" as="geometry" />
        </mxCell>
        <mxCell id="RE4k1GAgKNQsEZz6e2NA-5" value="Notification" style="whiteSpace=wrap;html=1;align=center;" parent="1" vertex="1">
          <mxGeometry x="630" y="230" width="100" height="40" as="geometry" />
        </mxCell>
        <mxCell id="RE4k1GAgKNQsEZz6e2NA-6" value="Hotel" style="whiteSpace=wrap;html=1;align=center;" parent="1" vertex="1">
          <mxGeometry x="1140" y="1160" width="100" height="40" as="geometry" />
        </mxCell>
        <mxCell id="RE4k1GAgKNQsEZz6e2NA-7" value="Vehicle" style="whiteSpace=wrap;html=1;align=center;" parent="1" vertex="1">
          <mxGeometry x="1140" y="1290" width="100" height="40" as="geometry" />
        </mxCell>
        <mxCell id="RE4k1GAgKNQsEZz6e2NA-8" value="Tour" style="whiteSpace=wrap;html=1;align=center;" parent="1" vertex="1">
          <mxGeometry x="1110" y="1430" width="100" height="40" as="geometry" />
        </mxCell>
        <mxCell id="RE4k1GAgKNQsEZz6e2NA-9" value="Feedback" style="whiteSpace=wrap;html=1;align=center;" parent="1" vertex="1">
          <mxGeometry x="370" y="460" width="100" height="40" as="geometry" />
        </mxCell>
        <mxCell id="RE4k1GAgKNQsEZz6e2NA-10" value="Activity" style="whiteSpace=wrap;html=1;align=center;" parent="1" vertex="1">
          <mxGeometry x="1130" y="1660" width="100" height="40" as="geometry" />
        </mxCell>
        <mxCell id="RE4k1GAgKNQsEZz6e2NA-11" value="Catering" style="whiteSpace=wrap;html=1;align=center;" parent="1" vertex="1">
          <mxGeometry x="1140" y="1770" width="100" height="40" as="geometry" />
        </mxCell>
        <mxCell id="RE4k1GAgKNQsEZz6e2NA-12" value="Entertainment" style="whiteSpace=wrap;html=1;align=center;" parent="1" vertex="1">
          <mxGeometry x="1150" y="1870" width="100" height="40" as="geometry" />
        </mxCell>
        <mxCell id="RE4k1GAgKNQsEZz6e2NA-13" value="Freelancer" style="whiteSpace=wrap;html=1;align=center;" parent="1" vertex="1">
          <mxGeometry x="1150" y="2010" width="100" height="40" as="geometry" />
        </mxCell>
        <mxCell id="RE4k1GAgKNQsEZz6e2NA-14" value="&lt;u&gt;ID&lt;/u&gt;" style="ellipse;whiteSpace=wrap;html=1;align=center;" parent="1" vertex="1">
          <mxGeometry x="1350" y="650" width="100" height="40" as="geometry" />
        </mxCell>
        <mxCell id="RE4k1GAgKNQsEZz6e2NA-16" value="name" style="ellipse;whiteSpace=wrap;html=1;align=center;" parent="1" vertex="1">
          <mxGeometry x="1430" y="590" width="100" height="40" as="geometry" />
        </mxCell>
        <mxCell id="RE4k1GAgKNQsEZz6e2NA-17" value="amount" style="ellipse;whiteSpace=wrap;html=1;align=center;" parent="1" vertex="1">
          <mxGeometry x="1550" y="590" width="100" height="40" as="geometry" />
        </mxCell>
        <mxCell id="RE4k1GAgKNQsEZz6e2NA-18" value="description" style="ellipse;whiteSpace=wrap;html=1;align=center;" parent="1" vertex="1">
          <mxGeometry x="1250" y="610" width="100" height="40" as="geometry" />
        </mxCell>
        <mxCell id="RE4k1GAgKNQsEZz6e2NA-19" value="image" style="ellipse;whiteSpace=wrap;html=1;align=center;" parent="1" vertex="1">
          <mxGeometry x="1670" y="500" width="100" height="40" as="geometry" />
        </mxCell>
        <mxCell id="RE4k1GAgKNQsEZz6e2NA-20" value="isAvailable" style="ellipse;whiteSpace=wrap;html=1;align=center;" parent="1" vertex="1">
          <mxGeometry x="1230" y="370" width="100" height="40" as="geometry" />
        </mxCell>
        <mxCell id="RE4k1GAgKNQsEZz6e2NA-22" value="image5" style="ellipse;whiteSpace=wrap;html=1;align=center;" parent="1" vertex="1">
          <mxGeometry x="1810" y="450" width="100" height="40" as="geometry" />
        </mxCell>
        <mxCell id="RE4k1GAgKNQsEZz6e2NA-23" value="" style="endArrow=none;html=1;rounded=0;exitX=0.5;exitY=0;exitDx=0;exitDy=0;entryX=0.25;entryY=1;entryDx=0;entryDy=0;" parent="1" source="RE4k1GAgKNQsEZz6e2NA-14" target="RE4k1GAgKNQsEZz6e2NA-1" edge="1">
          <mxGeometry relative="1" as="geometry">
            <mxPoint x="1420" y="570" as="sourcePoint" />
            <mxPoint x="1580" y="570" as="targetPoint" />
          </mxGeometry>
        </mxCell>
        <mxCell id="RE4k1GAgKNQsEZz6e2NA-24" value="" style="endArrow=none;html=1;rounded=0;exitX=0;exitY=0;exitDx=0;exitDy=0;entryX=0.5;entryY=1;entryDx=0;entryDy=0;" parent="1" source="RE4k1GAgKNQsEZz6e2NA-16" target="RE4k1GAgKNQsEZz6e2NA-1" edge="1">
          <mxGeometry relative="1" as="geometry">
            <mxPoint x="1370" y="600" as="sourcePoint" />
            <mxPoint x="1425" y="530" as="targetPoint" />
          </mxGeometry>
        </mxCell>
        <mxCell id="RE4k1GAgKNQsEZz6e2NA-25" value="" style="endArrow=none;html=1;rounded=0;exitX=0;exitY=0;exitDx=0;exitDy=0;entryX=0.75;entryY=1;entryDx=0;entryDy=0;" parent="1" source="RE4k1GAgKNQsEZz6e2NA-17" target="RE4k1GAgKNQsEZz6e2NA-1" edge="1">
          <mxGeometry relative="1" as="geometry">
            <mxPoint x="1455" y="606" as="sourcePoint" />
            <mxPoint x="1450" y="530" as="targetPoint" />
          </mxGeometry>
        </mxCell>
        <mxCell id="RE4k1GAgKNQsEZz6e2NA-26" value="" style="endArrow=none;html=1;rounded=0;entryX=0;entryY=0.75;entryDx=0;entryDy=0;exitX=1;exitY=0.5;exitDx=0;exitDy=0;" parent="1" source="RE4k1GAgKNQsEZz6e2NA-18" target="RE4k1GAgKNQsEZz6e2NA-1" edge="1">
          <mxGeometry relative="1" as="geometry">
            <mxPoint x="1240" y="550" as="sourcePoint" />
            <mxPoint x="1425" y="530" as="targetPoint" />
          </mxGeometry>
        </mxCell>
        <mxCell id="RE4k1GAgKNQsEZz6e2NA-27" value="shortDescription" style="ellipse;whiteSpace=wrap;html=1;align=center;" parent="1" vertex="1">
          <mxGeometry x="1110" y="680" width="100" height="40" as="geometry" />
        </mxCell>
        <mxCell id="RE4k1GAgKNQsEZz6e2NA-28" value="longDescription" style="ellipse;whiteSpace=wrap;html=1;align=center;" parent="1" vertex="1">
          <mxGeometry x="1225" y="700" width="100" height="40" as="geometry" />
        </mxCell>
        <mxCell id="RE4k1GAgKNQsEZz6e2NA-29" value="" style="endArrow=none;html=1;rounded=0;exitX=0;exitY=0.5;exitDx=0;exitDy=0;entryX=0.5;entryY=0;entryDx=0;entryDy=0;" parent="1" source="RE4k1GAgKNQsEZz6e2NA-18" target="RE4k1GAgKNQsEZz6e2NA-27" edge="1">
          <mxGeometry relative="1" as="geometry">
            <mxPoint x="1150" y="699.47" as="sourcePoint" />
            <mxPoint x="1040" y="710" as="targetPoint" />
          </mxGeometry>
        </mxCell>
        <mxCell id="RE4k1GAgKNQsEZz6e2NA-30" value="" style="endArrow=none;html=1;rounded=0;exitX=0;exitY=1;exitDx=0;exitDy=0;entryX=0.5;entryY=0;entryDx=0;entryDy=0;" parent="1" source="RE4k1GAgKNQsEZz6e2NA-18" target="RE4k1GAgKNQsEZz6e2NA-28" edge="1">
          <mxGeometry relative="1" as="geometry">
            <mxPoint x="1260" y="640" as="sourcePoint" />
            <mxPoint x="1170" y="690" as="targetPoint" />
          </mxGeometry>
        </mxCell>
        <mxCell id="RE4k1GAgKNQsEZz6e2NA-31" value="" style="endArrow=none;html=1;rounded=0;exitX=0;exitY=0.5;exitDx=0;exitDy=0;entryX=1;entryY=1;entryDx=0;entryDy=0;" parent="1" source="RE4k1GAgKNQsEZz6e2NA-19" target="RE4k1GAgKNQsEZz6e2NA-1" edge="1">
          <mxGeometry relative="1" as="geometry">
            <mxPoint x="1575" y="606" as="sourcePoint" />
            <mxPoint x="1475" y="530" as="targetPoint" />
          </mxGeometry>
        </mxCell>
        <mxCell id="RE4k1GAgKNQsEZz6e2NA-32" value="image1" style="ellipse;whiteSpace=wrap;html=1;align=center;" parent="1" vertex="1">
          <mxGeometry x="1650" y="620" width="100" height="40" as="geometry" />
        </mxCell>
        <mxCell id="RE4k1GAgKNQsEZz6e2NA-33" value="image2" style="ellipse;whiteSpace=wrap;html=1;align=center;" parent="1" vertex="1">
          <mxGeometry x="1770" y="610" width="100" height="40" as="geometry" />
        </mxCell>
        <mxCell id="RE4k1GAgKNQsEZz6e2NA-34" value="image3" style="ellipse;whiteSpace=wrap;html=1;align=center;" parent="1" vertex="1">
          <mxGeometry x="1890" y="595" width="100" height="40" as="geometry" />
        </mxCell>
        <mxCell id="RE4k1GAgKNQsEZz6e2NA-35" value="image4" style="ellipse;whiteSpace=wrap;html=1;align=center;" parent="1" vertex="1">
          <mxGeometry x="1870" y="515" width="100" height="40" as="geometry" />
        </mxCell>
        <mxCell id="RE4k1GAgKNQsEZz6e2NA-36" value="Location" style="ellipse;whiteSpace=wrap;html=1;align=center;" parent="1" vertex="1">
          <mxGeometry x="1480" y="350" width="100" height="40" as="geometry" />
        </mxCell>
        <mxCell id="RE4k1GAgKNQsEZz6e2NA-37" value="" style="endArrow=none;html=1;rounded=0;exitX=0;exitY=0;exitDx=0;exitDy=0;entryX=0;entryY=1;entryDx=0;entryDy=0;" parent="1" source="RE4k1GAgKNQsEZz6e2NA-32" target="RE4k1GAgKNQsEZz6e2NA-19" edge="1">
          <mxGeometry relative="1" as="geometry">
            <mxPoint x="1565" y="546" as="sourcePoint" />
            <mxPoint x="1465" y="470" as="targetPoint" />
          </mxGeometry>
        </mxCell>
        <mxCell id="RE4k1GAgKNQsEZz6e2NA-41" value="" style="endArrow=none;html=1;rounded=0;exitX=0;exitY=0;exitDx=0;exitDy=0;entryX=0.5;entryY=1;entryDx=0;entryDy=0;" parent="1" source="RE4k1GAgKNQsEZz6e2NA-33" target="RE4k1GAgKNQsEZz6e2NA-19" edge="1">
          <mxGeometry relative="1" as="geometry">
            <mxPoint x="1675" y="636" as="sourcePoint" />
            <mxPoint x="1695" y="544" as="targetPoint" />
          </mxGeometry>
        </mxCell>
        <mxCell id="RE4k1GAgKNQsEZz6e2NA-42" value="" style="endArrow=none;html=1;rounded=0;exitX=0;exitY=0.5;exitDx=0;exitDy=0;entryX=1;entryY=1;entryDx=0;entryDy=0;" parent="1" source="RE4k1GAgKNQsEZz6e2NA-34" target="RE4k1GAgKNQsEZz6e2NA-19" edge="1">
          <mxGeometry relative="1" as="geometry">
            <mxPoint x="1795" y="626" as="sourcePoint" />
            <mxPoint x="1730" y="550" as="targetPoint" />
          </mxGeometry>
        </mxCell>
        <mxCell id="RE4k1GAgKNQsEZz6e2NA-43" value="" style="endArrow=none;html=1;rounded=0;exitX=0;exitY=0.5;exitDx=0;exitDy=0;entryX=1;entryY=0.5;entryDx=0;entryDy=0;" parent="1" source="RE4k1GAgKNQsEZz6e2NA-35" target="RE4k1GAgKNQsEZz6e2NA-19" edge="1">
          <mxGeometry relative="1" as="geometry">
            <mxPoint x="1900" y="625" as="sourcePoint" />
            <mxPoint x="1765" y="544" as="targetPoint" />
          </mxGeometry>
        </mxCell>
        <mxCell id="RE4k1GAgKNQsEZz6e2NA-44" value="" style="endArrow=none;html=1;rounded=0;exitX=0;exitY=0.5;exitDx=0;exitDy=0;entryX=1;entryY=0;entryDx=0;entryDy=0;" parent="1" source="RE4k1GAgKNQsEZz6e2NA-22" target="RE4k1GAgKNQsEZz6e2NA-19" edge="1">
          <mxGeometry relative="1" as="geometry">
            <mxPoint x="1880" y="545" as="sourcePoint" />
            <mxPoint x="1780" y="530" as="targetPoint" />
          </mxGeometry>
        </mxCell>
        <mxCell id="RE4k1GAgKNQsEZz6e2NA-45" value="" style="endArrow=none;html=1;rounded=0;exitX=0;exitY=1;exitDx=0;exitDy=0;entryX=0.75;entryY=0;entryDx=0;entryDy=0;" parent="1" source="RE4k1GAgKNQsEZz6e2NA-36" target="RE4k1GAgKNQsEZz6e2NA-1" edge="1">
          <mxGeometry relative="1" as="geometry">
            <mxPoint x="1830" y="540" as="sourcePoint" />
            <mxPoint x="1775" y="576" as="targetPoint" />
          </mxGeometry>
        </mxCell>
        <mxCell id="RE4k1GAgKNQsEZz6e2NA-46" value="" style="endArrow=none;html=1;rounded=0;exitX=0.5;exitY=1;exitDx=0;exitDy=0;entryX=0.25;entryY=0;entryDx=0;entryDy=0;" parent="1" source="RE4k1GAgKNQsEZz6e2NA-20" target="RE4k1GAgKNQsEZz6e2NA-1" edge="1">
          <mxGeometry relative="1" as="geometry">
            <mxPoint x="1525" y="394" as="sourcePoint" />
            <mxPoint x="1475" y="490" as="targetPoint" />
          </mxGeometry>
        </mxCell>
        <mxCell id="RE4k1GAgKNQsEZz6e2NA-47" value="&lt;u&gt;ID&lt;/u&gt;" style="ellipse;whiteSpace=wrap;html=1;align=center;" parent="1" vertex="1">
          <mxGeometry x="1500" y="90" width="100" height="40" as="geometry" />
        </mxCell>
        <mxCell id="RE4k1GAgKNQsEZz6e2NA-48" value="username" style="ellipse;whiteSpace=wrap;html=1;align=center;" parent="1" vertex="1">
          <mxGeometry x="1590" y="30" width="100" height="40" as="geometry" />
        </mxCell>
        <mxCell id="RE4k1GAgKNQsEZz6e2NA-49" value="password" style="ellipse;whiteSpace=wrap;html=1;align=center;" parent="1" vertex="1">
          <mxGeometry x="1730" y="30" width="100" height="40" as="geometry" />
        </mxCell>
        <mxCell id="RE4k1GAgKNQsEZz6e2NA-50" value="" style="endArrow=none;html=1;rounded=0;exitX=1;exitY=1;exitDx=0;exitDy=0;entryX=0;entryY=0.5;entryDx=0;entryDy=0;" parent="1" source="RE4k1GAgKNQsEZz6e2NA-47" target="xqVaAm3ZB9rG-4G4HERd-1" edge="1">
          <mxGeometry relative="1" as="geometry">
            <mxPoint x="1620" y="184" as="sourcePoint" />
            <mxPoint x="1570" y="280" as="targetPoint" />
          </mxGeometry>
        </mxCell>
        <mxCell id="RE4k1GAgKNQsEZz6e2NA-51" value="" style="endArrow=none;html=1;rounded=0;exitX=0.5;exitY=1;exitDx=0;exitDy=0;entryX=0.25;entryY=0;entryDx=0;entryDy=0;" parent="1" source="RE4k1GAgKNQsEZz6e2NA-48" target="xqVaAm3ZB9rG-4G4HERd-1" edge="1">
          <mxGeometry relative="1" as="geometry">
            <mxPoint x="1615" y="94" as="sourcePoint" />
            <mxPoint x="1700" y="130" as="targetPoint" />
          </mxGeometry>
        </mxCell>
        <mxCell id="RE4k1GAgKNQsEZz6e2NA-52" value="" style="endArrow=none;html=1;rounded=0;exitX=0.5;exitY=1;exitDx=0;exitDy=0;entryX=0.75;entryY=0;entryDx=0;entryDy=0;" parent="1" source="RE4k1GAgKNQsEZz6e2NA-49" target="xqVaAm3ZB9rG-4G4HERd-1" edge="1">
          <mxGeometry relative="1" as="geometry">
            <mxPoint x="1715" y="80" as="sourcePoint" />
            <mxPoint x="1770" y="150" as="targetPoint" />
          </mxGeometry>
        </mxCell>
        <mxCell id="RE4k1GAgKNQsEZz6e2NA-53" value="&lt;u&gt;ID&lt;/u&gt;" style="ellipse;whiteSpace=wrap;html=1;align=center;" parent="1" vertex="1">
          <mxGeometry x="940" y="90" width="100" height="40" as="geometry" />
        </mxCell>
        <mxCell id="RE4k1GAgKNQsEZz6e2NA-54" value="" style="endArrow=none;html=1;rounded=0;exitX=0.5;exitY=1;exitDx=0;exitDy=0;entryX=0.25;entryY=0;entryDx=0;entryDy=0;" parent="1" source="RE4k1GAgKNQsEZz6e2NA-53" target="xqVaAm3ZB9rG-4G4HERd-3" edge="1">
          <mxGeometry relative="1" as="geometry">
            <mxPoint x="935" y="240" as="sourcePoint" />
            <mxPoint x="1070" y="340" as="targetPoint" />
          </mxGeometry>
        </mxCell>
        <mxCell id="RE4k1GAgKNQsEZz6e2NA-55" value="email" style="ellipse;whiteSpace=wrap;html=1;align=center;" parent="1" vertex="1">
          <mxGeometry x="850" y="130" width="100" height="40" as="geometry" />
        </mxCell>
        <mxCell id="RE4k1GAgKNQsEZz6e2NA-56" value="" style="endArrow=none;html=1;rounded=0;exitX=1;exitY=0.5;exitDx=0;exitDy=0;entryX=0;entryY=0.25;entryDx=0;entryDy=0;" parent="1" source="RE4k1GAgKNQsEZz6e2NA-55" target="xqVaAm3ZB9rG-4G4HERd-3" edge="1">
          <mxGeometry relative="1" as="geometry">
            <mxPoint x="930" y="120" as="sourcePoint" />
            <mxPoint x="1055" y="180" as="targetPoint" />
          </mxGeometry>
        </mxCell>
        <mxCell id="RE4k1GAgKNQsEZz6e2NA-57" value="password" style="ellipse;whiteSpace=wrap;html=1;align=center;" parent="1" vertex="1">
          <mxGeometry x="1050" y="80" width="100" height="40" as="geometry" />
        </mxCell>
        <mxCell id="RE4k1GAgKNQsEZz6e2NA-58" value="" style="endArrow=none;html=1;rounded=0;exitX=0.5;exitY=1;exitDx=0;exitDy=0;entryX=0.5;entryY=0;entryDx=0;entryDy=0;" parent="1" source="RE4k1GAgKNQsEZz6e2NA-57" target="xqVaAm3ZB9rG-4G4HERd-3" edge="1">
          <mxGeometry relative="1" as="geometry">
            <mxPoint x="1042.5" y="130" as="sourcePoint" />
            <mxPoint x="1097.5" y="170" as="targetPoint" />
          </mxGeometry>
        </mxCell>
        <mxCell id="RE4k1GAgKNQsEZz6e2NA-59" value="name" style="ellipse;whiteSpace=wrap;html=1;align=center;" parent="1" vertex="1">
          <mxGeometry x="1150" y="110" width="100" height="40" as="geometry" />
        </mxCell>
        <mxCell id="RE4k1GAgKNQsEZz6e2NA-60" value="" style="endArrow=none;html=1;rounded=0;exitX=0;exitY=1;exitDx=0;exitDy=0;entryX=1;entryY=0.25;entryDx=0;entryDy=0;" parent="1" source="RE4k1GAgKNQsEZz6e2NA-59" target="xqVaAm3ZB9rG-4G4HERd-3" edge="1">
          <mxGeometry relative="1" as="geometry">
            <mxPoint x="1110" y="130" as="sourcePoint" />
            <mxPoint x="1080" y="180" as="targetPoint" />
          </mxGeometry>
        </mxCell>
        <mxCell id="RE4k1GAgKNQsEZz6e2NA-61" value="address" style="ellipse;whiteSpace=wrap;html=1;align=center;" parent="1" vertex="1">
          <mxGeometry x="1160" y="230" width="100" height="40" as="geometry" />
        </mxCell>
        <mxCell id="RE4k1GAgKNQsEZz6e2NA-62" value="" style="endArrow=none;html=1;rounded=0;exitX=0;exitY=0.5;exitDx=0;exitDy=0;entryX=1;entryY=1;entryDx=0;entryDy=0;" parent="1" source="RE4k1GAgKNQsEZz6e2NA-61" target="xqVaAm3ZB9rG-4G4HERd-3" edge="1">
          <mxGeometry relative="1" as="geometry">
            <mxPoint x="1175" y="154" as="sourcePoint" />
            <mxPoint x="1130" y="190" as="targetPoint" />
          </mxGeometry>
        </mxCell>
        <mxCell id="RE4k1GAgKNQsEZz6e2NA-63" value="phoneNumber" style="ellipse;whiteSpace=wrap;html=1;align=center;" parent="1" vertex="1">
          <mxGeometry x="1010" y="250" width="100" height="40" as="geometry" />
        </mxCell>
        <mxCell id="RE4k1GAgKNQsEZz6e2NA-64" value="" style="endArrow=none;html=1;rounded=0;exitX=0.5;exitY=0;exitDx=0;exitDy=0;entryX=0.5;entryY=1;entryDx=0;entryDy=0;" parent="1" source="RE4k1GAgKNQsEZz6e2NA-63" target="xqVaAm3ZB9rG-4G4HERd-3" edge="1">
          <mxGeometry relative="1" as="geometry">
            <mxPoint x="1170" y="260" as="sourcePoint" />
            <mxPoint x="1130" y="220" as="targetPoint" />
          </mxGeometry>
        </mxCell>
        <mxCell id="RE4k1GAgKNQsEZz6e2NA-65" value="category" style="ellipse;whiteSpace=wrap;html=1;align=center;" parent="1" vertex="1">
          <mxGeometry x="900" y="250" width="100" height="40" as="geometry" />
        </mxCell>
        <mxCell id="RE4k1GAgKNQsEZz6e2NA-66" value="" style="endArrow=none;html=1;rounded=0;exitX=0.745;exitY=0.126;exitDx=0;exitDy=0;entryX=0;entryY=0.75;entryDx=0;entryDy=0;exitPerimeter=0;" parent="1" source="RE4k1GAgKNQsEZz6e2NA-65" target="xqVaAm3ZB9rG-4G4HERd-3" edge="1">
          <mxGeometry relative="1" as="geometry">
            <mxPoint x="1170" y="260" as="sourcePoint" />
            <mxPoint x="1130" y="220" as="targetPoint" />
          </mxGeometry>
        </mxCell>
        <mxCell id="RE4k1GAgKNQsEZz6e2NA-68" value="phoneNumber" style="ellipse;whiteSpace=wrap;html=1;align=center;" parent="1" vertex="1">
          <mxGeometry x="700" y="400" width="100" height="40" as="geometry" />
        </mxCell>
        <mxCell id="RE4k1GAgKNQsEZz6e2NA-69" value="name" style="ellipse;whiteSpace=wrap;html=1;align=center;" parent="1" vertex="1">
          <mxGeometry x="885" y="360" width="100" height="40" as="geometry" />
        </mxCell>
        <mxCell id="RE4k1GAgKNQsEZz6e2NA-70" value="address" style="ellipse;whiteSpace=wrap;html=1;align=center;" parent="1" vertex="1">
          <mxGeometry x="1000" y="380" width="100" height="40" as="geometry" />
        </mxCell>
        <mxCell id="RE4k1GAgKNQsEZz6e2NA-71" value="email" style="ellipse;whiteSpace=wrap;html=1;align=center;" parent="1" vertex="1">
          <mxGeometry x="720" y="500" width="100" height="40" as="geometry" />
        </mxCell>
        <mxCell id="RE4k1GAgKNQsEZz6e2NA-72" value="password" style="ellipse;whiteSpace=wrap;html=1;align=center;" parent="1" vertex="1">
          <mxGeometry x="820" y="520" width="100" height="40" as="geometry" />
        </mxCell>
        <mxCell id="RE4k1GAgKNQsEZz6e2NA-73" value="&lt;u&gt;ID&lt;/u&gt;" style="ellipse;whiteSpace=wrap;html=1;align=center;" parent="1" vertex="1">
          <mxGeometry x="1010" y="510" width="100" height="40" as="geometry" />
        </mxCell>
        <mxCell id="RE4k1GAgKNQsEZz6e2NA-74" value="" style="endArrow=none;html=1;rounded=0;exitX=0;exitY=1;exitDx=0;exitDy=0;entryX=1;entryY=0.25;entryDx=0;entryDy=0;" parent="1" source="RE4k1GAgKNQsEZz6e2NA-70" target="xqVaAm3ZB9rG-4G4HERd-2" edge="1">
          <mxGeometry relative="1" as="geometry">
            <mxPoint x="1080" y="487.5" as="sourcePoint" />
            <mxPoint x="1155" y="432.5" as="targetPoint" />
          </mxGeometry>
        </mxCell>
        <mxCell id="RE4k1GAgKNQsEZz6e2NA-75" value="" style="endArrow=none;html=1;rounded=0;exitX=0.5;exitY=1;exitDx=0;exitDy=0;entryX=0.5;entryY=0;entryDx=0;entryDy=0;" parent="1" source="RE4k1GAgKNQsEZz6e2NA-69" target="xqVaAm3ZB9rG-4G4HERd-2" edge="1">
          <mxGeometry relative="1" as="geometry">
            <mxPoint x="970" y="404" as="sourcePoint" />
            <mxPoint x="925" y="440" as="targetPoint" />
          </mxGeometry>
        </mxCell>
        <mxCell id="RE4k1GAgKNQsEZz6e2NA-76" value="" style="endArrow=none;html=1;rounded=0;entryX=0;entryY=0.5;entryDx=0;entryDy=0;exitX=1;exitY=1;exitDx=0;exitDy=0;" parent="1" source="RE4k1GAgKNQsEZz6e2NA-68" target="xqVaAm3ZB9rG-4G4HERd-2" edge="1">
          <mxGeometry relative="1" as="geometry">
            <mxPoint x="890" y="420" as="sourcePoint" />
            <mxPoint x="930" y="450" as="targetPoint" />
          </mxGeometry>
        </mxCell>
        <mxCell id="RE4k1GAgKNQsEZz6e2NA-77" value="" style="endArrow=none;html=1;rounded=0;entryX=0;entryY=0.75;entryDx=0;entryDy=0;exitX=1;exitY=0;exitDx=0;exitDy=0;" parent="1" source="RE4k1GAgKNQsEZz6e2NA-71" target="xqVaAm3ZB9rG-4G4HERd-2" edge="1">
          <mxGeometry relative="1" as="geometry">
            <mxPoint x="815" y="424" as="sourcePoint" />
            <mxPoint x="880" y="450" as="targetPoint" />
          </mxGeometry>
        </mxCell>
        <mxCell id="RE4k1GAgKNQsEZz6e2NA-78" value="" style="endArrow=none;html=1;rounded=0;entryX=0.25;entryY=1;entryDx=0;entryDy=0;exitX=0.5;exitY=0;exitDx=0;exitDy=0;" parent="1" source="RE4k1GAgKNQsEZz6e2NA-72" target="xqVaAm3ZB9rG-4G4HERd-2" edge="1">
          <mxGeometry relative="1" as="geometry">
            <mxPoint x="815" y="516" as="sourcePoint" />
            <mxPoint x="880" y="480" as="targetPoint" />
          </mxGeometry>
        </mxCell>
        <mxCell id="RE4k1GAgKNQsEZz6e2NA-79" value="" style="endArrow=none;html=1;rounded=0;entryX=0.75;entryY=1;entryDx=0;entryDy=0;exitX=0;exitY=0;exitDx=0;exitDy=0;" parent="1" source="RE4k1GAgKNQsEZz6e2NA-73" target="xqVaAm3ZB9rG-4G4HERd-2" edge="1">
          <mxGeometry relative="1" as="geometry">
            <mxPoint x="940" y="530" as="sourcePoint" />
            <mxPoint x="930" y="490" as="targetPoint" />
          </mxGeometry>
        </mxCell>
        <mxCell id="RE4k1GAgKNQsEZz6e2NA-81" value="&lt;u&gt;ID&lt;/u&gt;" style="ellipse;whiteSpace=wrap;html=1;align=center;" parent="1" vertex="1">
          <mxGeometry x="780" y="770" width="100" height="40" as="geometry" />
        </mxCell>
        <mxCell id="RE4k1GAgKNQsEZz6e2NA-82" value="" style="endArrow=none;html=1;rounded=0;entryX=1;entryY=0;entryDx=0;entryDy=0;exitX=0;exitY=0.75;exitDx=0;exitDy=0;" parent="1" source="RE4k1GAgKNQsEZz6e2NA-2" target="RE4k1GAgKNQsEZz6e2NA-81" edge="1">
          <mxGeometry relative="1" as="geometry">
            <mxPoint x="880" y="500" as="sourcePoint" />
            <mxPoint x="870" y="460" as="targetPoint" />
          </mxGeometry>
        </mxCell>
        <mxCell id="RE4k1GAgKNQsEZz6e2NA-84" value="amount" style="ellipse;whiteSpace=wrap;html=1;align=center;" parent="1" vertex="1">
          <mxGeometry x="730" y="680" width="100" height="40" as="geometry" />
        </mxCell>
        <mxCell id="RE4k1GAgKNQsEZz6e2NA-85" value="" style="endArrow=none;html=1;rounded=0;entryX=0;entryY=0.25;entryDx=0;entryDy=0;exitX=1;exitY=0.5;exitDx=0;exitDy=0;" parent="1" source="RE4k1GAgKNQsEZz6e2NA-84" target="RE4k1GAgKNQsEZz6e2NA-2" edge="1">
          <mxGeometry relative="1" as="geometry">
            <mxPoint x="920" y="740" as="sourcePoint" />
            <mxPoint x="875" y="786" as="targetPoint" />
          </mxGeometry>
        </mxCell>
        <mxCell id="RE4k1GAgKNQsEZz6e2NA-86" value="dateTime" style="ellipse;whiteSpace=wrap;html=1;align=center;" parent="1" vertex="1">
          <mxGeometry x="830" y="615" width="100" height="40" as="geometry" />
        </mxCell>
        <mxCell id="RE4k1GAgKNQsEZz6e2NA-87" value="" style="endArrow=none;html=1;rounded=0;entryX=0.25;entryY=0;entryDx=0;entryDy=0;exitX=0.5;exitY=1;exitDx=0;exitDy=0;" parent="1" source="RE4k1GAgKNQsEZz6e2NA-86" target="RE4k1GAgKNQsEZz6e2NA-2" edge="1">
          <mxGeometry relative="1" as="geometry">
            <mxPoint x="840" y="710" as="sourcePoint" />
            <mxPoint x="920" y="720" as="targetPoint" />
          </mxGeometry>
        </mxCell>
        <mxCell id="RE4k1GAgKNQsEZz6e2NA-88" value="&lt;u&gt;ID&lt;/u&gt;" style="ellipse;whiteSpace=wrap;html=1;align=center;" parent="1" vertex="1">
          <mxGeometry x="520" y="160" width="100" height="40" as="geometry" />
        </mxCell>
        <mxCell id="RE4k1GAgKNQsEZz6e2NA-89" value="dateTime" style="ellipse;whiteSpace=wrap;html=1;align=center;" parent="1" vertex="1">
          <mxGeometry x="660" y="150" width="100" height="40" as="geometry" />
        </mxCell>
        <mxCell id="RE4k1GAgKNQsEZz6e2NA-90" value="content" style="ellipse;whiteSpace=wrap;html=1;align=center;" parent="1" vertex="1">
          <mxGeometry x="485" y="240" width="100" height="40" as="geometry" />
        </mxCell>
        <mxCell id="RE4k1GAgKNQsEZz6e2NA-91" value="" style="endArrow=none;html=1;rounded=0;exitX=1;exitY=0.5;exitDx=0;exitDy=0;entryX=0;entryY=0.5;entryDx=0;entryDy=0;" parent="1" source="RE4k1GAgKNQsEZz6e2NA-90" target="RE4k1GAgKNQsEZz6e2NA-5" edge="1">
          <mxGeometry relative="1" as="geometry">
            <mxPoint x="795" y="190" as="sourcePoint" />
            <mxPoint x="595" y="280" as="targetPoint" />
          </mxGeometry>
        </mxCell>
        <mxCell id="RE4k1GAgKNQsEZz6e2NA-92" value="" style="endArrow=none;html=1;rounded=0;entryX=0.75;entryY=0;entryDx=0;entryDy=0;exitX=0.5;exitY=1;exitDx=0;exitDy=0;" parent="1" source="RE4k1GAgKNQsEZz6e2NA-89" target="RE4k1GAgKNQsEZz6e2NA-5" edge="1">
          <mxGeometry relative="1" as="geometry">
            <mxPoint x="780" y="210" as="sourcePoint" />
            <mxPoint x="715" y="220" as="targetPoint" />
          </mxGeometry>
        </mxCell>
        <mxCell id="RE4k1GAgKNQsEZz6e2NA-93" value="" style="endArrow=none;html=1;rounded=0;entryX=0;entryY=0.25;entryDx=0;entryDy=0;exitX=1;exitY=1;exitDx=0;exitDy=0;" parent="1" source="RE4k1GAgKNQsEZz6e2NA-88" target="RE4k1GAgKNQsEZz6e2NA-5" edge="1">
          <mxGeometry relative="1" as="geometry">
            <mxPoint x="720" y="200" as="sourcePoint" />
            <mxPoint x="715" y="240" as="targetPoint" />
          </mxGeometry>
        </mxCell>
        <mxCell id="RE4k1GAgKNQsEZz6e2NA-94" value="&lt;u&gt;ID&lt;/u&gt;" style="ellipse;whiteSpace=wrap;html=1;align=center;" parent="1" vertex="1">
          <mxGeometry x="480" y="380" width="100" height="40" as="geometry" />
        </mxCell>
        <mxCell id="RE4k1GAgKNQsEZz6e2NA-95" value="dateTime" style="ellipse;whiteSpace=wrap;html=1;align=center;" parent="1" vertex="1">
          <mxGeometry x="310" y="380" width="100" height="40" as="geometry" />
        </mxCell>
        <mxCell id="RE4k1GAgKNQsEZz6e2NA-96" value="feedBackText" style="ellipse;whiteSpace=wrap;html=1;align=center;" parent="1" vertex="1">
          <mxGeometry x="260" y="515" width="100" height="40" as="geometry" />
        </mxCell>
        <mxCell id="RE4k1GAgKNQsEZz6e2NA-97" value="" style="endArrow=none;html=1;rounded=0;entryX=0.25;entryY=0;entryDx=0;entryDy=0;exitX=0.5;exitY=1;exitDx=0;exitDy=0;" parent="1" source="RE4k1GAgKNQsEZz6e2NA-95" target="RE4k1GAgKNQsEZz6e2NA-9" edge="1">
          <mxGeometry relative="1" as="geometry">
            <mxPoint x="450" y="140" as="sourcePoint" />
            <mxPoint x="445" y="180" as="targetPoint" />
          </mxGeometry>
        </mxCell>
        <mxCell id="RE4k1GAgKNQsEZz6e2NA-98" value="" style="endArrow=none;html=1;rounded=0;entryX=0.75;entryY=0;entryDx=0;entryDy=0;exitX=0;exitY=1;exitDx=0;exitDy=0;" parent="1" source="RE4k1GAgKNQsEZz6e2NA-94" target="RE4k1GAgKNQsEZz6e2NA-9" edge="1">
          <mxGeometry relative="1" as="geometry">
            <mxPoint x="370" y="430" as="sourcePoint" />
            <mxPoint x="405" y="470" as="targetPoint" />
          </mxGeometry>
        </mxCell>
        <mxCell id="RE4k1GAgKNQsEZz6e2NA-99" value="" style="endArrow=none;html=1;rounded=0;entryX=0;entryY=0.75;entryDx=0;entryDy=0;exitX=0.5;exitY=0;exitDx=0;exitDy=0;" parent="1" source="RE4k1GAgKNQsEZz6e2NA-96" target="RE4k1GAgKNQsEZz6e2NA-9" edge="1">
          <mxGeometry relative="1" as="geometry">
            <mxPoint x="310" y="470" as="sourcePoint" />
            <mxPoint x="455" y="470" as="targetPoint" />
          </mxGeometry>
        </mxCell>
        <mxCell id="RE4k1GAgKNQsEZz6e2NA-100" value="&lt;u&gt;ID&lt;/u&gt;" style="ellipse;whiteSpace=wrap;html=1;align=center;" parent="1" vertex="1">
          <mxGeometry x="1030" y="920" width="100" height="40" as="geometry" />
        </mxCell>
        <mxCell id="RE4k1GAgKNQsEZz6e2NA-101" value="" style="endArrow=none;html=1;rounded=0;entryX=0.25;entryY=0;entryDx=0;entryDy=0;exitX=1;exitY=1;exitDx=0;exitDy=0;" parent="1" source="RE4k1GAgKNQsEZz6e2NA-100" target="RE4k1GAgKNQsEZz6e2NA-4" edge="1">
          <mxGeometry relative="1" as="geometry">
            <mxPoint x="1505" y="874" as="sourcePoint" />
            <mxPoint x="1530" y="920" as="targetPoint" />
          </mxGeometry>
        </mxCell>
        <mxCell id="RE4k1GAgKNQsEZz6e2NA-102" value="&lt;u&gt;ID&lt;/u&gt;" style="ellipse;whiteSpace=wrap;html=1;align=center;" parent="1" vertex="1">
          <mxGeometry x="1050" y="1090" width="100" height="40" as="geometry" />
        </mxCell>
        <mxCell id="RE4k1GAgKNQsEZz6e2NA-103" value="" style="endArrow=none;html=1;rounded=0;entryX=0.25;entryY=0;entryDx=0;entryDy=0;exitX=1;exitY=1;exitDx=0;exitDy=0;" parent="1" source="RE4k1GAgKNQsEZz6e2NA-102" target="RE4k1GAgKNQsEZz6e2NA-6" edge="1">
          <mxGeometry relative="1" as="geometry">
            <mxPoint x="1525" y="1044" as="sourcePoint" />
            <mxPoint x="1165" y="1150" as="targetPoint" />
          </mxGeometry>
        </mxCell>
        <mxCell id="RE4k1GAgKNQsEZz6e2NA-104" value="&lt;u&gt;ID&lt;/u&gt;" style="ellipse;whiteSpace=wrap;html=1;align=center;" parent="1" vertex="1">
          <mxGeometry x="1050" y="1230" width="100" height="40" as="geometry" />
        </mxCell>
        <mxCell id="RE4k1GAgKNQsEZz6e2NA-105" value="" style="endArrow=none;html=1;rounded=0;entryX=0.25;entryY=0;entryDx=0;entryDy=0;exitX=1;exitY=1;exitDx=0;exitDy=0;" parent="1" source="RE4k1GAgKNQsEZz6e2NA-104" target="RE4k1GAgKNQsEZz6e2NA-7" edge="1">
          <mxGeometry relative="1" as="geometry">
            <mxPoint x="1525" y="1184" as="sourcePoint" />
            <mxPoint x="1165" y="1290" as="targetPoint" />
          </mxGeometry>
        </mxCell>
        <mxCell id="RE4k1GAgKNQsEZz6e2NA-106" value="&lt;u&gt;ID&lt;/u&gt;" style="ellipse;whiteSpace=wrap;html=1;align=center;" parent="1" vertex="1">
          <mxGeometry x="1040" y="1360" width="100" height="40" as="geometry" />
        </mxCell>
        <mxCell id="RE4k1GAgKNQsEZz6e2NA-107" value="" style="endArrow=none;html=1;rounded=0;entryX=0.5;entryY=0;entryDx=0;entryDy=0;exitX=1;exitY=1;exitDx=0;exitDy=0;" parent="1" source="RE4k1GAgKNQsEZz6e2NA-106" target="RE4k1GAgKNQsEZz6e2NA-8" edge="1">
          <mxGeometry relative="1" as="geometry">
            <mxPoint x="1515" y="1314" as="sourcePoint" />
            <mxPoint x="1155" y="1420" as="targetPoint" />
          </mxGeometry>
        </mxCell>
        <mxCell id="RE4k1GAgKNQsEZz6e2NA-108" value="&lt;u&gt;ID&lt;/u&gt;" style="ellipse;whiteSpace=wrap;html=1;align=center;" parent="1" vertex="1">
          <mxGeometry x="1050" y="1590" width="100" height="40" as="geometry" />
        </mxCell>
        <mxCell id="RE4k1GAgKNQsEZz6e2NA-109" value="" style="endArrow=none;html=1;rounded=0;entryX=0.25;entryY=0;entryDx=0;entryDy=0;exitX=1;exitY=1;exitDx=0;exitDy=0;" parent="1" source="RE4k1GAgKNQsEZz6e2NA-108" target="RE4k1GAgKNQsEZz6e2NA-10" edge="1">
          <mxGeometry relative="1" as="geometry">
            <mxPoint x="1525" y="1544" as="sourcePoint" />
            <mxPoint x="1165" y="1650" as="targetPoint" />
          </mxGeometry>
        </mxCell>
        <mxCell id="RE4k1GAgKNQsEZz6e2NA-110" value="&lt;u&gt;ID&lt;/u&gt;" style="ellipse;whiteSpace=wrap;html=1;align=center;" parent="1" vertex="1">
          <mxGeometry x="1050" y="1710" width="100" height="40" as="geometry" />
        </mxCell>
        <mxCell id="RE4k1GAgKNQsEZz6e2NA-111" value="" style="endArrow=none;html=1;rounded=0;entryX=0.25;entryY=0;entryDx=0;entryDy=0;exitX=1;exitY=1;exitDx=0;exitDy=0;" parent="1" source="RE4k1GAgKNQsEZz6e2NA-110" target="RE4k1GAgKNQsEZz6e2NA-11" edge="1">
          <mxGeometry relative="1" as="geometry">
            <mxPoint x="1525" y="1664" as="sourcePoint" />
            <mxPoint x="1165" y="1770" as="targetPoint" />
          </mxGeometry>
        </mxCell>
        <mxCell id="RE4k1GAgKNQsEZz6e2NA-112" value="&lt;u&gt;ID&lt;/u&gt;" style="ellipse;whiteSpace=wrap;html=1;align=center;" parent="1" vertex="1">
          <mxGeometry x="1050" y="1810" width="100" height="40" as="geometry" />
        </mxCell>
        <mxCell id="RE4k1GAgKNQsEZz6e2NA-113" value="" style="endArrow=none;html=1;rounded=0;entryX=0.25;entryY=0;entryDx=0;entryDy=0;exitX=1;exitY=1;exitDx=0;exitDy=0;" parent="1" source="RE4k1GAgKNQsEZz6e2NA-112" target="RE4k1GAgKNQsEZz6e2NA-12" edge="1">
          <mxGeometry relative="1" as="geometry">
            <mxPoint x="1525" y="1764" as="sourcePoint" />
            <mxPoint x="1165" y="1870" as="targetPoint" />
          </mxGeometry>
        </mxCell>
        <mxCell id="RE4k1GAgKNQsEZz6e2NA-114" value="&lt;u&gt;ID&lt;/u&gt;" style="ellipse;whiteSpace=wrap;html=1;align=center;" parent="1" vertex="1">
          <mxGeometry x="1070" y="1950" width="100" height="40" as="geometry" />
        </mxCell>
        <mxCell id="RE4k1GAgKNQsEZz6e2NA-115" value="" style="endArrow=none;html=1;rounded=0;entryX=0.25;entryY=0;entryDx=0;entryDy=0;exitX=1;exitY=1;exitDx=0;exitDy=0;" parent="1" source="RE4k1GAgKNQsEZz6e2NA-114" target="RE4k1GAgKNQsEZz6e2NA-13" edge="1">
          <mxGeometry relative="1" as="geometry">
            <mxPoint x="1545" y="1904" as="sourcePoint" />
            <mxPoint x="1185" y="2010" as="targetPoint" />
          </mxGeometry>
        </mxCell>
        <mxCell id="RE4k1GAgKNQsEZz6e2NA-116" value="&lt;u&gt;ID&lt;/u&gt;" style="ellipse;whiteSpace=wrap;html=1;align=center;" parent="1" vertex="1">
          <mxGeometry x="1580" y="870" width="100" height="40" as="geometry" />
        </mxCell>
        <mxCell id="RE4k1GAgKNQsEZz6e2NA-117" value="" style="endArrow=none;html=1;rounded=0;entryX=0;entryY=0.25;entryDx=0;entryDy=0;exitX=0.5;exitY=1;exitDx=0;exitDy=0;" parent="1" source="RE4k1GAgKNQsEZz6e2NA-116" target="RE4k1GAgKNQsEZz6e2NA-3" edge="1">
          <mxGeometry relative="1" as="geometry">
            <mxPoint x="1655" y="950" as="sourcePoint" />
            <mxPoint x="1605" y="996" as="targetPoint" />
          </mxGeometry>
        </mxCell>
        <mxCell id="RE4k1GAgKNQsEZz6e2NA-118" value="Manages" style="shape=rhombus;perimeter=rhombusPerimeter;whiteSpace=wrap;html=1;align=center;" parent="1" vertex="1">
          <mxGeometry x="1630" y="290" width="120" height="60" as="geometry" />
        </mxCell>
        <mxCell id="RE4k1GAgKNQsEZz6e2NA-120" value="" style="endArrow=none;html=1;rounded=0;exitX=0.5;exitY=1;exitDx=0;exitDy=0;entryX=1;entryY=0;entryDx=0;entryDy=0;" parent="1" source="RE4k1GAgKNQsEZz6e2NA-118" target="RE4k1GAgKNQsEZz6e2NA-1" edge="1">
          <mxGeometry relative="1" as="geometry">
            <mxPoint x="1700" y="270" as="sourcePoint" />
            <mxPoint x="1670" y="366" as="targetPoint" />
          </mxGeometry>
        </mxCell>
        <mxCell id="RE4k1GAgKNQsEZz6e2NA-121" value="" style="endArrow=none;html=1;rounded=0;exitX=0.75;exitY=1;exitDx=0;exitDy=0;entryX=1;entryY=0.5;entryDx=0;entryDy=0;" parent="1" source="xqVaAm3ZB9rG-4G4HERd-1" target="RE4k1GAgKNQsEZz6e2NA-118" edge="1">
          <mxGeometry relative="1" as="geometry">
            <mxPoint x="1660" y="330" as="sourcePoint" />
            <mxPoint x="1420" y="560" as="targetPoint" />
          </mxGeometry>
        </mxCell>
        <mxCell id="RE4k1GAgKNQsEZz6e2NA-122" value="provides" style="shape=rhombus;perimeter=rhombusPerimeter;whiteSpace=wrap;html=1;align=center;" parent="1" vertex="1">
          <mxGeometry x="1300" y="250" width="120" height="60" as="geometry" />
        </mxCell>
        <mxCell id="RE4k1GAgKNQsEZz6e2NA-123" value="" style="endArrow=none;html=1;rounded=0;exitX=1;exitY=0.5;exitDx=0;exitDy=0;entryX=0.5;entryY=0;entryDx=0;entryDy=0;" parent="1" source="xqVaAm3ZB9rG-4G4HERd-3" target="RE4k1GAgKNQsEZz6e2NA-122" edge="1">
          <mxGeometry relative="1" as="geometry">
            <mxPoint x="1350" y="110" as="sourcePoint" />
            <mxPoint x="1380" y="230" as="targetPoint" />
          </mxGeometry>
        </mxCell>
        <mxCell id="RE4k1GAgKNQsEZz6e2NA-124" value="" style="endArrow=none;html=1;rounded=0;exitX=0.25;exitY=0;exitDx=0;exitDy=0;entryX=0.5;entryY=1;entryDx=0;entryDy=0;" parent="1" source="RE4k1GAgKNQsEZz6e2NA-1" target="RE4k1GAgKNQsEZz6e2NA-122" edge="1">
          <mxGeometry relative="1" as="geometry">
            <mxPoint x="1130" y="200" as="sourcePoint" />
            <mxPoint x="1370" y="260" as="targetPoint" />
          </mxGeometry>
        </mxCell>
        <mxCell id="KfqDTWUmitpfmHlAUnaQ-1" value="" style="endArrow=none;html=1;rounded=0;exitX=1;exitY=0.5;exitDx=0;exitDy=0;entryX=0;entryY=0.25;entryDx=0;entryDy=0;" edge="1" parent="1" source="KfqDTWUmitpfmHlAUnaQ-4" target="RE4k1GAgKNQsEZz6e2NA-1">
          <mxGeometry relative="1" as="geometry">
            <mxPoint x="1012.5" y="470" as="sourcePoint" />
            <mxPoint x="1087.5" y="415" as="targetPoint" />
          </mxGeometry>
        </mxCell>
        <mxCell id="KfqDTWUmitpfmHlAUnaQ-2" value="" style="endArrow=none;html=1;rounded=0;entryX=1;entryY=0.5;entryDx=0;entryDy=0;exitX=0;exitY=0.5;exitDx=0;exitDy=0;" edge="1" parent="1" source="KfqDTWUmitpfmHlAUnaQ-6" target="RE4k1GAgKNQsEZz6e2NA-5">
          <mxGeometry relative="1" as="geometry">
            <mxPoint x="788" y="200" as="sourcePoint" />
            <mxPoint x="783" y="240" as="targetPoint" />
          </mxGeometry>
        </mxCell>
        <mxCell id="KfqDTWUmitpfmHlAUnaQ-3" value="" style="endArrow=none;html=1;rounded=0;entryX=0.75;entryY=1;entryDx=0;entryDy=0;exitX=0.25;exitY=0;exitDx=0;exitDy=0;" edge="1" parent="1" source="KfqDTWUmitpfmHlAUnaQ-8" target="RE4k1GAgKNQsEZz6e2NA-5">
          <mxGeometry relative="1" as="geometry">
            <mxPoint x="1030" y="200" as="sourcePoint" />
            <mxPoint x="808" y="260" as="targetPoint" />
          </mxGeometry>
        </mxCell>
        <mxCell id="KfqDTWUmitpfmHlAUnaQ-5" value="" style="endArrow=none;html=1;rounded=0;exitX=1;exitY=0.5;exitDx=0;exitDy=0;entryX=0;entryY=0.25;entryDx=0;entryDy=0;" edge="1" parent="1" source="xqVaAm3ZB9rG-4G4HERd-2" target="KfqDTWUmitpfmHlAUnaQ-4">
          <mxGeometry relative="1" as="geometry">
            <mxPoint x="970" y="460" as="sourcePoint" />
            <mxPoint x="1390" y="490" as="targetPoint" />
          </mxGeometry>
        </mxCell>
        <mxCell id="KfqDTWUmitpfmHlAUnaQ-4" value="gets" style="shape=rhombus;perimeter=rhombusPerimeter;whiteSpace=wrap;html=1;align=center;" vertex="1" parent="1">
          <mxGeometry x="1110" y="440" width="120" height="60" as="geometry" />
        </mxCell>
        <mxCell id="KfqDTWUmitpfmHlAUnaQ-7" value="" style="endArrow=none;html=1;rounded=0;entryX=1;entryY=0.5;entryDx=0;entryDy=0;exitX=0;exitY=0.5;exitDx=0;exitDy=0;" edge="1" parent="1" source="xqVaAm3ZB9rG-4G4HERd-3" target="KfqDTWUmitpfmHlAUnaQ-6">
          <mxGeometry relative="1" as="geometry">
            <mxPoint x="1020" y="190" as="sourcePoint" />
            <mxPoint x="730" y="250" as="targetPoint" />
          </mxGeometry>
        </mxCell>
        <mxCell id="KfqDTWUmitpfmHlAUnaQ-6" value="sends" style="shape=rhombus;perimeter=rhombusPerimeter;whiteSpace=wrap;html=1;align=center;" vertex="1" parent="1">
          <mxGeometry x="810" y="190" width="120" height="60" as="geometry" />
        </mxCell>
        <mxCell id="KfqDTWUmitpfmHlAUnaQ-9" value="" style="endArrow=none;html=1;rounded=0;entryX=0.75;entryY=1;entryDx=0;entryDy=0;exitX=0.25;exitY=0;exitDx=0;exitDy=0;" edge="1" parent="1" source="xqVaAm3ZB9rG-4G4HERd-2" target="KfqDTWUmitpfmHlAUnaQ-8">
          <mxGeometry relative="1" as="geometry">
            <mxPoint x="895" y="440" as="sourcePoint" />
            <mxPoint x="705" y="270" as="targetPoint" />
          </mxGeometry>
        </mxCell>
        <mxCell id="KfqDTWUmitpfmHlAUnaQ-8" value="sends" style="shape=rhombus;perimeter=rhombusPerimeter;whiteSpace=wrap;html=1;align=center;" vertex="1" parent="1">
          <mxGeometry x="710" y="300" width="120" height="60" as="geometry" />
        </mxCell>
        <mxCell id="KfqDTWUmitpfmHlAUnaQ-10" value="gives" style="shape=rhombus;perimeter=rhombusPerimeter;whiteSpace=wrap;html=1;align=center;" vertex="1" parent="1">
          <mxGeometry x="560" y="450" width="120" height="60" as="geometry" />
        </mxCell>
        <mxCell id="KfqDTWUmitpfmHlAUnaQ-11" value="" style="endArrow=none;html=1;rounded=0;entryX=0;entryY=0.5;entryDx=0;entryDy=0;exitX=1;exitY=0.5;exitDx=0;exitDy=0;" edge="1" parent="1" source="KfqDTWUmitpfmHlAUnaQ-10" target="xqVaAm3ZB9rG-4G4HERd-2">
          <mxGeometry relative="1" as="geometry">
            <mxPoint x="815" y="516" as="sourcePoint" />
            <mxPoint x="880" y="480" as="targetPoint" />
          </mxGeometry>
        </mxCell>
        <mxCell id="KfqDTWUmitpfmHlAUnaQ-12" value="" style="endArrow=none;html=1;rounded=0;entryX=1;entryY=0.5;entryDx=0;entryDy=0;exitX=0;exitY=0.5;exitDx=0;exitDy=0;" edge="1" parent="1" source="KfqDTWUmitpfmHlAUnaQ-10" target="RE4k1GAgKNQsEZz6e2NA-9">
          <mxGeometry relative="1" as="geometry">
            <mxPoint x="505" y="424" as="sourcePoint" />
            <mxPoint x="455" y="470" as="targetPoint" />
          </mxGeometry>
        </mxCell>
        <mxCell id="KfqDTWUmitpfmHlAUnaQ-13" value="provides" style="shape=rhombus;perimeter=rhombusPerimeter;whiteSpace=wrap;html=1;align=center;" vertex="1" parent="1">
          <mxGeometry x="1120" y="555" width="120" height="60" as="geometry" />
        </mxCell>
        <mxCell id="KfqDTWUmitpfmHlAUnaQ-14" value="" style="endArrow=none;html=1;rounded=0;exitX=1;exitY=0.5;exitDx=0;exitDy=0;entryX=0;entryY=0.5;entryDx=0;entryDy=0;" edge="1" parent="1" source="KfqDTWUmitpfmHlAUnaQ-13" target="RE4k1GAgKNQsEZz6e2NA-1">
          <mxGeometry relative="1" as="geometry">
            <mxPoint x="1240" y="480" as="sourcePoint" />
            <mxPoint x="1340" y="510" as="targetPoint" />
          </mxGeometry>
        </mxCell>
        <mxCell id="KfqDTWUmitpfmHlAUnaQ-15" value="" style="endArrow=none;html=1;rounded=0;exitX=1;exitY=0.25;exitDx=0;exitDy=0;entryX=0;entryY=1;entryDx=0;entryDy=0;" edge="1" parent="1" source="RE4k1GAgKNQsEZz6e2NA-2" target="KfqDTWUmitpfmHlAUnaQ-13">
          <mxGeometry relative="1" as="geometry">
            <mxPoint x="1250" y="595" as="sourcePoint" />
            <mxPoint x="1400" y="510" as="targetPoint" />
          </mxGeometry>
        </mxCell>
        <mxCell id="KfqDTWUmitpfmHlAUnaQ-17" value="" style="endArrow=none;html=1;rounded=0;entryX=0.5;entryY=1;entryDx=0;entryDy=0;exitX=0.75;exitY=0;exitDx=0;exitDy=0;" edge="1" parent="1" source="KfqDTWUmitpfmHlAUnaQ-18" target="xqVaAm3ZB9rG-4G4HERd-2">
          <mxGeometry relative="1" as="geometry">
            <mxPoint x="1035" y="526" as="sourcePoint" />
            <mxPoint x="955" y="490" as="targetPoint" />
          </mxGeometry>
        </mxCell>
        <mxCell id="KfqDTWUmitpfmHlAUnaQ-19" value="" style="endArrow=none;html=1;rounded=0;entryX=0.5;entryY=1;entryDx=0;entryDy=0;exitX=0.75;exitY=0;exitDx=0;exitDy=0;" edge="1" parent="1" source="RE4k1GAgKNQsEZz6e2NA-2" target="KfqDTWUmitpfmHlAUnaQ-18">
          <mxGeometry relative="1" as="geometry">
            <mxPoint x="985" y="700" as="sourcePoint" />
            <mxPoint x="920" y="480" as="targetPoint" />
          </mxGeometry>
        </mxCell>
        <mxCell id="KfqDTWUmitpfmHlAUnaQ-18" value="sets" style="shape=rhombus;perimeter=rhombusPerimeter;whiteSpace=wrap;html=1;align=center;" vertex="1" parent="1">
          <mxGeometry x="900" y="555" width="120" height="60" as="geometry" />
        </mxCell>
      </root>
    </mxGraphModel>
  </diagram>
</mxfile>
